<svg width="36" height="37" viewBox="0 0 36 37" fill="none" xmlns="http://www.w3.org/2000/svg">
<g clip-path="url(#clip0_325_44614)">
<path fill-rule="evenodd" clip-rule="evenodd" d="M22.0583 36.5002C21.7841 36.5002 21.2569 36.3526 21.0038 35.3613L18.3044 25.3438C18.2411 25.0907 18.4098 24.8376 18.6629 24.8165C19.9283 24.6478 21.0882 24.0151 21.8896 23.0239C21.995 22.9185 22.1216 22.8763 22.2481 22.8763C23.3026 22.9817 24.3571 22.7497 25.2639 22.2225C25.4959 22.0749 25.8123 22.2014 25.8755 22.4756L28.7859 33.2735C29.1866 34.7497 28.1532 35.3613 26.9089 34.5178L24.5047 32.8939L23.2393 35.4879C22.923 36.1417 22.5012 36.5002 22.0583 36.5002Z" fill="#FA3C48"/>
<path fill-rule="evenodd" clip-rule="evenodd" d="M13.9395 36.5002C13.4755 36.5002 13.0537 36.1417 12.7585 35.4879L11.4931 32.8939L9.08888 34.5178C7.8235 35.3613 6.8112 34.7497 7.21191 33.2735L10.1012 22.4756C10.1855 22.2014 10.4808 22.0749 10.7339 22.2225C11.6196 22.7497 12.6952 22.9817 13.7286 22.8763C13.8762 22.8763 14.0028 22.9185 14.0871 23.0239C14.9096 24.0151 16.0696 24.6478 17.3349 24.8165C17.5669 24.8376 17.7356 25.0907 17.6724 25.3438L14.994 35.3613C14.7198 36.3526 14.2137 36.5002 13.9395 36.5002Z" fill="#FA3C48"/>
<path fill-rule="evenodd" clip-rule="evenodd" d="M17.9889 25.7021C16.3018 25.7021 14.7201 24.9851 13.5812 23.7408C10.0803 23.9095 7.16997 21.0202 7.35977 17.4982C4.74466 15.1573 4.74466 11.0448 7.35977 8.70387C7.16997 5.1819 10.0803 2.27153 13.5812 2.46134C15.9433 -0.153779 20.0557 -0.153779 22.3967 2.46134C25.9186 2.27153 28.8079 5.1819 28.6392 8.70387C31.2543 11.0448 31.2543 15.1573 28.6392 17.4982C28.8079 21.0202 25.9186 23.9095 22.3967 23.7408C21.2789 24.9851 19.6761 25.7021 17.9889 25.7021Z" fill="#FFCB29"/>
<path fill-rule="evenodd" clip-rule="evenodd" d="M17.9887 23.8038C16.7866 23.8038 15.6689 23.2766 14.8886 22.3486L14.4035 21.7792L13.6443 21.8425C11.1346 22.0534 9.02564 19.9444 9.25762 17.4558L9.32089 16.6966L8.73038 16.1905C6.81123 14.5877 6.81123 11.614 8.73038 10.0112L9.32089 9.50506L9.25762 8.74583C9.02564 6.25725 11.1346 4.1272 13.6443 4.35919L14.4035 4.42246L14.8886 3.83195C16.5125 1.91279 19.4861 1.91279 21.0889 3.83195L21.5951 4.42246L22.3543 4.35919C24.8429 4.14829 26.9518 6.25725 26.7409 8.74583L26.6566 9.50506L27.2471 10.0112C29.1873 11.614 29.1873 14.5877 27.2471 16.1905L26.6566 16.6966L26.7409 17.4558C26.9518 19.9655 24.8429 22.0534 22.3543 21.8425L21.5951 21.7792L21.0889 22.3486C20.3297 23.2766 19.1908 23.8038 17.9887 23.8038Z" fill="#FFA725"/>
<path fill-rule="evenodd" clip-rule="evenodd" d="M17.9893 19.7341C14.3408 19.7341 11.3672 16.7605 11.3672 13.0909C11.3672 9.44239 14.3408 6.46875 17.9893 6.46875C21.6589 6.46875 24.6326 9.44239 24.6326 13.0909C24.6326 16.7605 21.6589 19.7341 17.9893 19.7341Z" fill="#FFCC00"/>
<path d="M16.9565 15.4479C16.4899 15.8993 15.8882 16.125 15.1512 16.125C14.4142 16.125 13.8124 15.8993 13.3459 15.4479C12.8861 14.9896 12.6562 14.3819 12.6562 13.625C12.6562 12.8681 12.8861 12.2639 13.3459 11.8125C13.8124 11.3542 14.4142 11.125 15.1512 11.125C15.8882 11.125 16.4899 11.3542 16.9565 11.8125C17.423 12.2639 17.6562 12.8681 17.6562 13.625C17.6562 14.3819 17.423 14.9896 16.9565 15.4479ZM16.1451 12.5729C15.9017 12.3021 15.5704 12.1667 15.1512 12.1667C14.732 12.1667 14.4007 12.3021 14.1573 12.5729C13.9139 12.8368 13.7922 13.1875 13.7922 13.625C13.7922 14.0625 13.9139 14.4132 14.1573 14.6771C14.4007 14.941 14.732 15.0729 15.1512 15.0729C15.5704 15.0729 15.9017 14.941 16.1451 14.6771C16.3885 14.4132 16.5102 14.0625 16.5102 13.625C16.5102 13.1875 16.3885 12.8368 16.1451 12.5729Z" fill="#FC9942"/>
<path d="M19.1963 10.3896L19.7842 10.7012L19.9287 10.7783L19.8174 10.8975C19.7784 10.9392 19.7433 10.9805 19.7119 11.0215L19.6279 11.1436C19.5842 11.2165 19.5655 11.2838 19.5654 11.3467C19.5654 11.4109 19.5753 11.4721 19.5947 11.5303L19.6367 11.6123C19.657 11.6434 19.6842 11.6786 19.7197 11.7168L19.8535 11.8467C19.9076 11.8951 19.9716 11.9482 20.0449 12.0068H20.0439C20.1964 12.1182 20.3961 12.2585 20.6426 12.4287L20.8906 12.6016C21.1262 12.7714 21.3235 12.9326 21.4805 13.085L21.6279 13.2402C21.7638 13.3972 21.8661 13.5609 21.9346 13.7305H21.9355C22.0332 13.9519 22.0791 14.2109 22.0791 14.5029C22.079 14.8557 21.9933 15.1672 21.8184 15.4336L21.8193 15.4346C21.6513 15.6995 21.4152 15.901 21.1162 16.041L21.1172 16.042C20.8243 16.1821 20.4901 16.25 20.1182 16.25C19.5992 16.25 19.1907 16.1411 18.9199 15.8975L18.918 15.8945C18.664 15.6536 18.5312 15.3661 18.5312 15.0371C18.5313 14.7766 18.6155 14.5366 18.7793 14.3203L18.8496 14.2383C19.0244 14.0546 19.2837 13.9207 19.6123 13.8291L19.7227 13.7988L19.7627 13.9062L20.0215 14.5918L20.0723 14.7266L19.9316 14.7578C19.7552 14.7977 19.6437 14.8459 19.582 14.8936C19.5358 14.9334 19.5127 14.984 19.5127 15.0557C19.5128 15.1224 19.542 15.1828 19.6299 15.2412C19.7273 15.2962 19.8823 15.3311 20.1094 15.3311C20.4586 15.331 20.7108 15.2475 20.8828 15.0957C21.0575 14.9416 21.1435 14.7497 21.1436 14.5117C21.1436 14.3504 21.1114 14.2129 21.0508 14.0967L21.0498 14.0947C21.003 14.0011 20.9306 13.9008 20.8301 13.7939L20.7197 13.6846C20.5594 13.5357 20.3355 13.3614 20.0469 13.1611L20.0459 13.1602C19.6765 12.898 19.3824 12.6763 19.165 12.4951L19.1631 12.4941C18.9501 12.3116 18.7903 12.1374 18.6914 11.9727L18.6885 11.9678C18.5953 11.7948 18.5488 11.6078 18.5488 11.4092C18.5488 11.249 18.5947 11.0816 18.6777 10.9092V10.9072L18.752 10.7754C18.8325 10.6455 18.9324 10.5238 19.0508 10.4102L19.1162 10.3477L19.1963 10.3896Z" fill="#FC9942" stroke="#FC9942" stroke-width="0.25"/>
</g>
<defs>
<clipPath id="clip0_325_44614">
<rect width="36" height="36" fill="white" transform="translate(0 0.5)"/>
</clipPath>
</defs>
</svg>
