<svg width="34" height="35" viewBox="0 0 34 35" fill="none" xmlns="http://www.w3.org/2000/svg">
<path d="M9.50506 4.16602C9.47368 3.54687 9.58642 3.06862 9.89299 2.66602C10.6545 1.66602 12.2056 1.66602 15.3079 1.66602H18.6921C21.7944 1.66602 23.3455 1.66602 24.107 2.66602C24.4136 3.06862 24.5263 3.54687 24.4949 4.16602" stroke="#9CA3AF" stroke-width="3" stroke-linecap="round" stroke-linejoin="round"/>
<path d="M5.33398 10.832C5.39706 10.3993 5.54195 10.0252 5.78346 9.68921C6.75887 8.33203 8.78082 8.33203 12.8247 8.33203H21.1766C25.2205 8.33203 27.2424 8.33203 28.2178 9.68921C28.4594 10.0252 28.6042 10.3993 28.6673 10.832" stroke="#9CA3AF" stroke-width="3" stroke-linecap="round" stroke-linejoin="round"/>
<path d="M3.36255 23.688L4.56068 27.5267C6.05322 32.3086 7.32882 33.3333 12.3504 33.3333H21.6496C26.6712 33.3333 27.9468 32.3086 29.4393 27.5267L30.6374 23.688C31.8768 19.7171 32.4966 17.7316 31.5169 16.3658C30.5372 15 28.4933 15 24.4056 15H9.59437C5.50667 15 3.46283 15 2.48314 16.3658C1.50345 17.7316 2.12315 19.7171 3.36255 23.688Z" stroke="#9CA3AF" stroke-width="3" stroke-linecap="round" stroke-linejoin="round"/>
</svg>
