<svg width="36" height="37" viewBox="0 0 36 37" fill="none" xmlns="http://www.w3.org/2000/svg">
<g clip-path="url(#clip0_325_44639)">
<path fill-rule="evenodd" clip-rule="evenodd" d="M22.0583 36.5002C21.7841 36.5002 21.2569 36.3526 21.0038 35.3613L18.3044 25.3438C18.2411 25.0907 18.4098 24.8376 18.6629 24.8165C19.9283 24.6478 21.0882 24.0151 21.8896 23.0239C21.995 22.9185 22.1216 22.8763 22.2481 22.8763C23.3026 22.9817 24.3571 22.7497 25.2639 22.2225C25.4959 22.0749 25.8123 22.2014 25.8755 22.4756L28.7859 33.2735C29.1866 34.7497 28.1532 35.3613 26.9089 34.5178L24.5047 32.8939L23.2393 35.4879C22.923 36.1417 22.5012 36.5002 22.0583 36.5002Z" fill="#FA3C48"/>
<path fill-rule="evenodd" clip-rule="evenodd" d="M13.9395 36.5002C13.4755 36.5002 13.0537 36.1417 12.7585 35.4879L11.4931 32.8939L9.08888 34.5178C7.8235 35.3613 6.8112 34.7497 7.21191 33.2735L10.1012 22.4756C10.1855 22.2014 10.4808 22.0749 10.7339 22.2225C11.6196 22.7497 12.6952 22.9817 13.7286 22.8763C13.8762 22.8763 14.0028 22.9185 14.0871 23.0239C14.9096 24.0151 16.0696 24.6478 17.3349 24.8165C17.5669 24.8376 17.7356 25.0907 17.6724 25.3438L14.994 35.3613C14.7198 36.3526 14.2137 36.5002 13.9395 36.5002Z" fill="#FA3C48"/>
<path fill-rule="evenodd" clip-rule="evenodd" d="M17.9889 25.7021C16.3018 25.7021 14.7201 24.9851 13.5812 23.7408C10.0803 23.9095 7.16997 21.0202 7.35977 17.4982C4.74466 15.1573 4.74466 11.0448 7.35977 8.70387C7.16997 5.1819 10.0803 2.27153 13.5812 2.46134C15.9433 -0.153779 20.0557 -0.153779 22.3967 2.46134C25.9186 2.27153 28.8079 5.1819 28.6392 8.70387C31.2543 11.0448 31.2543 15.1573 28.6392 17.4982C28.8079 21.0202 25.9186 23.9095 22.3967 23.7408C21.2789 24.9851 19.6761 25.7021 17.9889 25.7021Z" fill="#FF915E"/>
<path fill-rule="evenodd" clip-rule="evenodd" d="M17.9887 23.8038C16.7866 23.8038 15.6689 23.2766 14.8886 22.3486L14.4035 21.7792L13.6443 21.8425C11.1346 22.0534 9.02564 19.9444 9.25762 17.4558L9.32089 16.6966L8.73038 16.1905C6.81123 14.5877 6.81123 11.614 8.73038 10.0112L9.32089 9.50506L9.25762 8.74583C9.02564 6.25725 11.1346 4.1272 13.6443 4.35919L14.4035 4.42246L14.8886 3.83195C16.5125 1.91279 19.4861 1.91279 21.0889 3.83195L21.5951 4.42246L22.3543 4.35919C24.8429 4.14829 26.9518 6.25725 26.7409 8.74583L26.6566 9.50506L27.2471 10.0112C29.1873 11.614 29.1873 14.5877 27.2471 16.1905L26.6566 16.6966L26.7409 17.4558C26.9518 19.9655 24.8429 22.0534 22.3543 21.8425L21.5951 21.7792L21.0889 22.3486C20.3297 23.2766 19.1908 23.8038 17.9887 23.8038Z" fill="#E86E35"/>
<path fill-rule="evenodd" clip-rule="evenodd" d="M17.9893 19.7341C14.3408 19.7341 11.3672 16.7605 11.3672 13.0909C11.3672 9.44239 14.3408 6.46875 17.9893 6.46875C21.6589 6.46875 24.6326 9.44239 24.6326 13.0909C24.6326 16.7605 21.6589 19.7341 17.9893 19.7341Z" fill="#FF915E"/>
</g>
<defs>
<clipPath id="clip0_325_44639">
<rect width="36" height="36" fill="white" transform="translate(0 0.5)"/>
</clipPath>
</defs>
</svg>
