<svg width="21" height="22" viewBox="0 0 21 22" fill="none" xmlns="http://www.w3.org/2000/svg">
<path d="M5.00021 1C3.70003 1.12853 2.82485 1.41902 2.17163 2.07554C1 3.25309 1 5.14832 1 8.93879V12.9592C1 16.7497 1 18.6449 2.17163 19.8225C3.34327 21 5.22898 21 9.00041 21H11.0005C14.7719 21 16.6577 21 17.8293 19.8225C18.8926 18.7538 18.9909 17.1056 19 13.9766" stroke="#9CA3AF" stroke-width="1.5" stroke-linecap="round" stroke-linejoin="round"/>
<path d="M10.0068 5.83559C9.91596 5.43146 9.51473 5.17744 9.11059 5.26824C8.70646 5.35904 8.45244 5.76027 8.54324 6.16441L10.0068 5.83559ZM10.0893 9.62458L10.8211 9.46018L10.0893 9.62458ZM17.8099 6.23042C17.9027 5.82673 17.6506 5.42428 17.2469 5.33154C16.8432 5.2388 16.4408 5.49088 16.348 5.89458L17.8099 6.23042ZM16.2607 9.62458L15.5297 9.45666L15.5289 9.46018L16.2607 9.62458ZM10.4886 10.2527L10.9141 9.63516H10.9141L10.4886 10.2527ZM15.8614 10.2527L16.287 10.8703V10.8703L15.8614 10.2527ZM20.2083 4.76017C20.2083 4.34595 19.8725 4.01017 19.4583 4.01017C19.0441 4.01017 18.7083 4.34595 18.7083 4.76017H20.2083ZM18.7083 9.4375C18.7083 9.85171 19.0441 10.1875 19.4583 10.1875C19.8725 10.1875 20.2083 9.85171 20.2083 9.4375H18.7083ZM7.75 4.125C7.75 4.26448 7.69808 4.34501 7.69714 4.34653C7.69283 4.35348 7.70458 4.33354 7.75231 4.28702C7.8477 4.19404 8.01161 4.06693 8.25013 3.91249C8.72132 3.60742 9.38274 3.26001 10.1017 2.92944C10.8173 2.60043 11.5674 2.29833 12.2071 2.08022C12.5272 1.97107 12.8118 1.88565 13.0457 1.82834C13.2924 1.76791 13.4386 1.75 13.5 1.75V0.25C13.2537 0.25 12.9659 0.303538 12.6888 0.371422C12.399 0.442429 12.07 0.542177 11.723 0.660481C11.0285 0.897274 10.2306 1.21919 9.47506 1.5666C8.72289 1.91245 7.99012 2.29388 7.4349 2.65337C7.16022 2.83121 6.90287 3.02031 6.70531 3.21287C6.60655 3.30913 6.5039 3.42431 6.42181 3.55688C6.34309 3.68403 6.25 3.88069 6.25 4.125H7.75ZM20.75 4.125C20.75 3.88069 20.6569 3.68403 20.5782 3.55688C20.4961 3.42431 20.3934 3.30913 20.2947 3.21287C20.0971 3.02031 19.8398 2.83121 19.5651 2.65337C19.0099 2.29388 18.2771 1.91245 17.5249 1.5666C16.7694 1.21919 15.9715 0.897274 15.277 0.660482C14.93 0.542177 14.601 0.442429 14.3112 0.371422C14.0341 0.303538 13.7463 0.25 13.5 0.25V1.75C13.5614 1.75 13.7076 1.76791 13.9543 1.82834C14.1882 1.88565 14.4728 1.97107 14.7929 2.08022C15.4326 2.29833 16.1827 2.60043 16.8983 2.92944C17.6173 3.26001 18.2787 3.60742 18.7499 3.91249C18.9884 4.06693 19.1523 4.19404 19.2477 4.28702C19.2954 4.33354 19.3072 4.35348 19.3029 4.34653C19.3019 4.34501 19.25 4.26448 19.25 4.125H20.75ZM19.25 4.125C19.25 3.98552 19.3019 3.90499 19.3029 3.90347C19.3072 3.89652 19.2954 3.91646 19.2477 3.96298C19.1523 4.05596 18.9884 4.18308 18.7499 4.33751C18.2787 4.64258 17.6173 4.98999 16.8983 5.32056C16.1827 5.64957 15.4326 5.95167 14.7929 6.16978C14.4728 6.27893 14.1882 6.36436 13.9543 6.42166C13.7076 6.48209 13.5614 6.5 13.5 6.5V8C13.7463 8 14.0341 7.94646 14.3112 7.87858C14.601 7.80757 14.93 7.70782 15.277 7.58952C15.9715 7.35273 16.7694 7.03081 17.5249 6.6834C18.2771 6.33755 19.0099 5.95612 19.5651 5.59663C19.8398 5.41879 20.0971 5.22969 20.2947 5.03713C20.3934 4.94087 20.4961 4.82569 20.5782 4.69312C20.6569 4.56597 20.75 4.36931 20.75 4.125H19.25ZM6.25 4.125C6.25 4.36931 6.34309 4.56597 6.42181 4.69312C6.5039 4.82569 6.60655 4.94087 6.70531 5.03713C6.90287 5.22969 7.16022 5.41879 7.4349 5.59663C7.99012 5.95612 8.72289 6.33755 9.47506 6.6834C10.2306 7.03081 11.0285 7.35273 11.723 7.58952C12.07 7.70782 12.399 7.80757 12.6888 7.87858C12.9659 7.94646 13.2537 8 13.5 8V6.5C13.4386 6.5 13.2924 6.48209 13.0457 6.42166C12.8118 6.36436 12.5272 6.27893 12.2071 6.16978C11.5674 5.95167 10.8173 5.64957 10.1017 5.32056C9.38274 4.98999 8.72132 4.64258 8.25013 4.33751C8.01161 4.18308 7.8477 4.05596 7.75231 3.96298C7.70458 3.91646 7.69283 3.89652 7.69714 3.90347C7.69808 3.90499 7.75 3.98552 7.75 4.125H6.25ZM8.54324 6.16441L9.35758 9.78899L10.8211 9.46018L10.0068 5.83559L8.54324 6.16441ZM16.348 5.89458L15.5297 9.45666L16.9916 9.79251L17.8099 6.23042L16.348 5.89458ZM10.063 10.8703C10.9408 11.4751 12.0817 11.75 13.175 11.75C14.2683 11.75 15.4092 11.4751 16.287 10.8703L15.4359 9.63516C14.8676 10.0267 14.0451 10.25 13.175 10.25C12.3049 10.25 11.4824 10.0267 10.9141 9.63516L10.063 10.8703ZM15.5289 9.46018C15.5037 9.57251 15.4586 9.61946 15.4359 9.63516L16.287 10.8703C16.6936 10.5901 16.9061 10.1732 16.9924 9.78899L15.5289 9.46018ZM9.35758 9.78899C9.4439 10.1732 9.65641 10.5901 10.063 10.8703L10.9141 9.63516C10.8914 9.61946 10.8463 9.57251 10.8211 9.46018L9.35758 9.78899ZM18.7083 4.76017V9.4375H20.2083V4.76017H18.7083Z" fill="#9CA3AF"/>
</svg>
