<svg width="34" height="52" viewBox="0 0 34 52" fill="none" xmlns="http://www.w3.org/2000/svg">
<path d="M25.7013 42.9327C25.5813 42.9269 25.4566 42.924 25.3236 42.924C24.5145 42.924 23.5419 43.2172 22.7532 43.6757C22.7301 43.6891 22.7079 43.7016 22.6857 43.7151C22.3449 43.9198 22.0725 44.211 21.8785 44.5522C21.8785 44.5522 21.8785 44.5532 21.8785 44.5542C21.8693 44.5696 21.8609 44.584 21.8526 44.5993C21.7732 44.7454 21.7095 44.9002 21.6614 45.0617C20.8237 46.8456 19.4762 47.8202 17.5273 48.2325V37.7482C17.6114 37.7482 17.6964 37.751 17.7786 37.751C19.5898 37.751 21.5525 37.2676 21.5525 37.2676V41.5044C21.8665 41.0901 22.2516 40.6989 22.6857 40.3529C22.7088 40.3337 22.7319 40.3154 22.755 40.2981C23.4422 39.7637 24.2485 39.3408 25.0954 39.1149C24.799 39.5657 24.6272 40.1078 24.6272 40.6903C24.6272 41.6053 25.0483 42.4185 25.7023 42.9327H25.7013Z" fill="#15212F"/>
<path d="M29.215 40.7758C29.1734 41.7994 28.3449 42.6375 27.3604 42.6529C27.0242 42.6587 26.7083 42.5731 26.4349 42.4184C25.8456 42.0849 25.4438 41.4361 25.4438 40.6902C25.4438 39.9443 25.8456 39.2936 26.4349 38.962C26.7009 38.8111 27.0066 38.7256 27.3317 38.7256C28.4003 38.7256 29.2621 39.6521 29.2159 40.7748L29.215 40.7758Z" fill="#588DE9"/>
<path d="M21.6614 45.0625C21.5894 45.2999 21.5525 45.5498 21.5525 45.8045C21.5525 46.9618 21.1017 48.0094 20.3739 48.7668C19.6452 49.5242 18.6394 49.9933 17.5273 49.9933V48.2334C19.4771 47.821 20.8237 46.8464 21.6614 45.0625Z" fill="black"/>
<path d="M21.6614 45.0625C21.5894 45.2999 21.5525 45.5498 21.5525 45.8045C21.5525 46.9618 21.1017 48.0094 20.3739 48.7668C19.6452 49.5242 18.6394 49.9933 17.5273 49.9933V48.2334C19.4771 47.821 20.8237 46.8464 21.6614 45.0625Z" fill="#454955"/>
<path d="M33.1413 18.8215C32.9261 23.4082 31.1232 27.274 28.4466 30.0825V30.0845C28.2111 30.3324 27.9682 30.5718 27.7197 30.8034C25.0745 33.264 21.719 34.7701 18.2323 35.0604C17.0224 35.1623 15.7958 35.1162 14.5794 34.9105C14.5563 34.9066 14.5332 34.9018 14.5111 34.8989C14.3217 34.8682 14.1342 34.8307 13.944 34.7903C13.8839 34.7769 13.823 34.7644 13.7629 34.75C11.3671 34.204 9.03218 33.0266 6.94388 31.1321C6.73145 30.9399 6.52271 30.74 6.3149 30.5324C6.0997 30.318 5.88911 30.0941 5.67945 29.8624C2.57056 26.3532 1.28212 21.3129 2.15493 16.6964C2.48466 16.8886 2.86889 16.9972 3.26881 16.9972C3.28821 16.9972 3.30668 16.9972 3.32608 16.9953C2.98803 20.9226 4.20813 25.1383 7.42139 28.0526C7.63659 28.2544 7.85734 28.4486 8.08639 28.6321C8.33115 28.8292 8.58422 29.0166 8.84376 29.1925C10.2347 30.1393 11.8104 30.7707 13.4387 31.0649C13.7445 31.1206 14.053 31.1648 14.3614 31.1956C15.8374 31.3465 17.3355 31.2196 18.7588 30.7996C19.4413 30.5987 20.1026 30.3324 20.7409 29.996C22.1124 29.3078 23.2965 28.3428 24.2515 27.1942C27.0778 23.8196 27.9451 18.859 25.8946 14.6837C25.3996 13.6505 24.7373 12.7124 23.9513 11.9108C22.5881 10.5142 20.8517 9.5213 18.9823 9.13203C18.7163 9.07436 18.4447 9.03207 18.1741 9.00131C17.2662 8.88405 16.3454 8.91673 15.4485 9.08301C12.5318 9.62511 9.56972 9.19643 6.9642 7.91712L6.48207 7.66721C5.23889 6.99632 4.08621 6.12262 3.06931 5.06534C6.45252 1.76758 11.0161 0 15.5788 0C18.1557 0 20.7307 0.564204 23.0924 1.73394C29.3545 4.69049 33.5302 11.6993 33.1413 18.8225V18.8215Z" fill="#4777CC"/>
<path d="M33.1418 18.8215C33.0596 20.568 32.7475 22.2087 32.245 23.7273C31.4276 26.1985 30.105 28.3428 28.4471 30.0825V30.0845C28.2125 30.3324 27.9687 30.5727 27.7202 30.8034C25.075 33.264 21.7195 34.7701 18.2328 35.0604C17.0229 35.1623 15.7963 35.1162 14.5799 34.9105C14.5578 34.9076 14.5347 34.9018 14.5116 34.8989C14.3222 34.8682 14.1348 34.8307 13.9445 34.7903C13.8845 34.7769 13.8235 34.7653 13.7635 34.75C11.3685 34.204 9.0327 33.0266 6.94441 31.1321C6.73197 30.9399 6.52324 30.74 6.31542 30.5324C6.10022 30.318 5.88964 30.0941 5.67998 29.8624C2.57201 26.3532 1.28356 21.3129 2.15546 16.6964C2.48519 16.8886 2.86941 16.9972 3.26934 16.9972C3.28873 16.9972 3.30721 16.9972 3.3266 16.9953C2.98856 20.9226 4.20866 25.1383 7.42191 28.0526C7.63712 28.2544 7.85786 28.4486 8.08599 28.6321C8.33075 28.8292 8.58382 29.0166 8.84336 29.1925C10.2343 30.1393 11.81 30.7707 13.4383 31.0649C13.7441 31.1216 14.0526 31.1648 14.361 31.1956C15.8379 31.3465 17.3342 31.2196 18.7584 30.7996C19.4409 30.5997 20.1022 30.3324 20.7405 29.996C22.112 29.3078 23.2961 28.3419 24.2511 27.1942C27.0774 23.8196 27.9447 18.859 25.8942 14.6837C25.3992 13.6505 24.7369 12.7124 23.9509 11.9098C22.9571 10.8919 21.7657 10.0884 20.468 9.57705C20.4477 9.56936 20.4273 9.56071 20.407 9.55398C20.383 9.54437 20.359 9.53476 20.335 9.52707C20.3184 9.5213 20.3027 9.51553 20.2879 9.50977C20.2731 9.504 20.2593 9.49823 20.2445 9.49343C20.2195 9.48382 20.1946 9.4742 20.1697 9.46651C20.1586 9.46267 20.1484 9.45883 20.1383 9.45498C20.105 9.44249 20.0718 9.43095 20.0376 9.42038C20.0348 9.41942 20.033 9.41846 20.033 9.41846C19.6885 9.30119 19.3375 9.20604 18.9819 9.13203C18.7159 9.07436 18.4443 9.03207 18.1737 9.00131C17.2658 8.88405 16.345 8.91673 15.4481 9.08301C12.5323 9.62511 9.56932 9.19739 6.9638 7.91712L6.4826 7.66721C5.23941 6.99632 4.08674 6.12262 3.06984 5.06534C6.45304 1.76758 11.0176 0 15.5793 0C18.1562 0 20.7312 0.564204 23.0929 1.73394C29.355 4.69049 33.5307 11.6993 33.1418 18.8225V18.8215Z" fill="#4777CC"/>
<path d="M13.7629 37.505V48.2979C13.7629 48.3373 13.7629 48.3758 13.7592 48.4152C13.7362 49.2466 13.4489 50.0059 12.9816 50.6105C12.3304 51.4582 11.3274 52.0003 10.2043 52.0003C9.34714 52.0003 8.56022 51.6841 7.94416 51.1574C7.18957 50.5096 6.69359 49.5446 6.6511 48.4575C6.64741 48.4046 6.64648 48.3518 6.64648 48.2979V34.0986C8.67474 35.749 10.9431 36.8668 13.399 37.4271C13.4498 37.4387 13.5016 37.4512 13.5542 37.4627L13.6133 37.4742C13.666 37.4858 13.7149 37.4964 13.7639 37.505H13.7629Z" fill="#588DE9"/>
<path d="M13.7627 38.1504V48.2974C13.7627 48.3368 13.7627 48.3753 13.759 48.4147C13.7276 49.0827 13.4321 49.8622 12.9813 50.61C12.3302 51.4577 11.3271 51.9998 10.204 51.9998C9.34691 51.9998 8.55999 51.6836 7.94394 51.1569C7.18935 50.509 6.69337 49.544 6.65088 48.457C11.716 48.234 13.7627 45.66 13.7627 38.1504Z" fill="#4777CC"/>
<path d="M5.2388 17.611L4.3392 16.202H4.33828L4.09352 15.8165C3.94112 15.977 3.72592 16.0914 3.46361 16.1299C3.45068 16.1318 3.43683 16.1337 3.42297 16.1337C3.23456 16.1568 3.04521 16.1385 2.86696 16.0847C2.806 16.0664 2.74596 16.0453 2.68962 16.0203C2.67577 16.0136 2.66099 16.0068 2.64806 16.0001C2.63051 15.9915 2.61296 15.9818 2.59541 15.9732C2.56309 15.9559 2.52984 15.9367 2.49843 15.9165C2.49751 15.9155 2.49751 15.9146 2.49659 15.9146C2.44579 15.8828 2.39684 15.8463 2.35066 15.8079C2.21027 15.6925 2.09851 15.5503 2.02277 15.3898C2.00707 15.358 1.99229 15.3263 1.98029 15.2936C1.97382 15.2802 1.9692 15.2667 1.96551 15.2533C1.95997 15.236 1.95442 15.2196 1.95165 15.2023C1.94796 15.1908 1.94611 15.1793 1.94334 15.1687C1.9378 15.1456 1.93318 15.1235 1.93041 15.1005L1.69396 15.1956L0.691841 15.5964L0.000976562 15.8723L0.798981 15.0312L1.3864 14.4113L2.46795 13.2733L2.7709 12.9551C3.50795 11.6364 4.24407 10.3196 4.98296 8.99609C4.97927 9.03646 4.97834 9.06145 4.9765 9.0874C4.85273 10.5215 4.72712 11.9565 4.60335 13.3896C4.59966 13.4223 4.59781 13.4569 4.59504 13.4886L4.6754 14.0018L4.92108 15.583L5.23973 17.611H5.2388Z" fill="#454955"/>
<path d="M4.60233 13.3906C4.59864 13.4233 4.59679 13.4579 4.59402 13.4896L4.67437 14.0029C4.43516 14.8179 4.22734 15.4552 4.15715 15.6464C4.11466 15.7647 4.03615 15.8665 3.93179 15.93C3.56419 16.1549 3.1892 16.1818 2.86593 16.0876C2.80497 16.0694 2.74494 16.0482 2.6886 16.0232C2.67474 16.0165 2.65997 16.0098 2.64704 16.003C2.62949 15.9944 2.61194 15.9848 2.59439 15.9761C2.56206 15.9579 2.52881 15.9386 2.49741 15.9194C2.49649 15.9185 2.49649 15.9175 2.49556 15.9175C2.25542 15.7599 2.0707 15.5349 1.97926 15.2966C1.96818 15.2658 1.95894 15.2351 1.94971 15.2053C1.94601 15.1937 1.94416 15.1822 1.94139 15.1716C1.93585 15.1486 1.93123 15.1265 1.92846 15.1034C1.89244 14.8756 2.12612 14.1595 2.46601 13.2762L2.76895 12.9581C3.506 11.6393 4.24212 10.3225 4.98101 8.99902C4.97732 9.03939 4.9764 9.06438 4.97455 9.09033C4.85078 10.5244 4.72517 11.9594 4.60141 13.3925L4.60233 13.3906Z" fill="#588DE9"/>
<path d="M33.1365 18.8225C33.0543 20.5689 32.7421 22.2096 32.2397 23.7283C32.3062 14.653 22.6461 10.419 20.4636 9.57801C20.4433 9.57032 20.4229 9.56167 20.4026 9.55494C20.3777 9.54533 20.3537 9.53668 20.3306 9.52803C20.314 9.52226 20.2983 9.5165 20.2835 9.51073C20.2687 9.50496 20.2548 9.4992 20.2401 9.49439C20.2151 9.48478 20.1902 9.47517 20.1653 9.46748C20.1542 9.46363 20.144 9.45979 20.1339 9.45594C20.0794 9.43672 20.0452 9.42519 20.0332 9.42134C20.0304 9.42038 20.0286 9.41942 20.0286 9.41942C19.6841 9.30216 19.3331 9.207 18.9775 9.13299C18.7115 9.07532 18.4399 9.03303 18.1693 9.00227C17.2614 8.88501 16.3406 8.91769 15.4437 9.08397C12.5279 9.62607 9.56491 9.19835 6.95939 7.91808L6.47819 7.66818C5.235 6.99728 4.08233 6.12358 3.06543 5.0663C6.44771 1.76758 11.0122 0 15.574 0C18.1508 0 20.7259 0.564204 23.0876 1.73394C29.3497 4.69049 33.5254 11.6993 33.1365 18.8225Z" fill="#588DE9"/>
</svg>
